<?xml version="1.0" encoding="iso-8859-1"?>
<!-- Generator: Adobe Illustrator 19.0.0, SVG Export Plug-In . SVG Version: 6.00 Build 0)  -->
<svg version="1.1" id="Capa_1" xmlns="http://www.w3.org/2000/svg" xmlns:xlink="http://www.w3.org/1999/xlink" x="0px" y="0px"
	 viewBox="0 0 512 512" style="enable-background:new 0 0 512 512;" xml:space="preserve">
<path style="fill:#FF5A81;" d="M355.96,25.105l-14.91,47.12l-9.05,28.6l-12.87,40.68c-6.11,19.3-5.81,39.96,0.84,58.18
	c5.71,15.65,6.11,32.36,1.15,48.31l-3.28,10.55H159.21l17.66-55.79c5.08-16.06,15.06-29.62,28.86-39.22
	c15.92-11.08,28.05-27.81,34.16-47.11l12.54-39.62l9.06-28.61l15.24-48.16l40.54,12.83L355.96,25.105z"/>
<path style="fill:#FF0536;" d="M355.96,25.105l-14.91,47.12l-9.05,28.6l-12.87,40.68c-6.11,19.3-5.81,39.96,0.84,58.18
	c5.71,15.65,6.11,32.36,1.15,48.31l-3.28,10.55h-75.81l75.24-245.68L355.96,25.105z"/>
<polygon style="fill:#6B77E8;" points="344.02,285.015 288.86,511.965 70.53,511.965 15.37,285.015 "/>
<path style="fill:#FF5A81;" d="M497,167.475v130.53c0,27.29-22.12,49.4-49.4,49.4s-49.4-22.11-49.4-49.4v-130.53H497z"/>
<path style="fill:#FF0536;" d="M497,167.475v130.53c0,27.29-22.12,49.4-49.4,49.4v-179.93H497z"/>
<rect x="398.2" y="167.47" style="fill:#CAE8F9;" width="98.8" height="68.49"/>
<rect y="229.22" style="fill:#7FC8F1;" width="359.39" height="85.79"/>
<g>
	<polygon style="fill:#CAE8F9;" points="341.05,72.225 332,100.825 293.86,89.315 252.43,76.805 261.49,48.195 302.64,60.625 	"/>
	<path style="fill:#CAE8F9;" d="M383.2,152.475v145.53c0,30.35,21.1,55.84,49.4,62.62v121.34h-15.45v30h62.44v-30H462.6v-121.34
		c28.3-6.78,49.4-32.27,49.4-62.62v-145.53H383.2z M482,298.005c0,18.97-15.43,34.4-34.4,34.4s-34.4-15.43-34.4-34.4v-115.53H482
		V298.005z"/>
</g>
<g>
	<path style="fill:#B8E0F8;" d="M512,152.475v145.53c0,30.35-21.1,55.84-49.4,62.62v121.34h16.99v30H447.6v-179.56
		c18.97,0,34.4-15.43,34.4-34.4v-115.53h-34.4v-30H512z"/>
	<rect x="447.6" y="167.47" style="fill:#B8E0F8;" width="49.4" height="68.49"/>
	<polygon style="fill:#B8E0F8;" points="341.05,72.225 332,100.825 293.86,89.315 302.64,60.625 	"/>
</g>
<polygon style="fill:#3A4DE2;" points="344.02,285.015 288.86,511.965 179.69,511.965 179.69,285.015 "/>
<rect x="179.69" y="229.22" style="fill:#00A6FF;" width="179.7" height="85.79"/>
<g>
</g>
<g>
</g>
<g>
</g>
<g>
</g>
<g>
</g>
<g>
</g>
<g>
</g>
<g>
</g>
<g>
</g>
<g>
</g>
<g>
</g>
<g>
</g>
<g>
</g>
<g>
</g>
<g>
</g>
</svg>
